# xmcd
#
# Track frame offsets: 
#        150
#        16436
#        33973
#        48829
#        71730
#        85920
#        102458
#        116156
#        132611
#        149089
#        164956
#        181769
#
# Disc length: 2635 seconds
#
# Revision: 0
# Processed by: cddbd v1.5.1PL2 Copyright (c) Steve Scherf et al.
# Submitted via: ExactAudioCopy v0.95b3
#
DISCID=b50a490c
DTITLE=Houston Marchman - Key To The Highway
DYEAR=2006
DGENRE=Country
TTITLE0=Radio Flyer
TTITLE1=Workin´ Girl
TTITLE2=Gorilla Pit
TTITLE3=Custer
TTITLE4=Key To The Highway
TTITLE5=Gone
TTITLE6=Ten Thousend Days
TTITLE7=Greasy Hand
TTITLE8=Too Much Whiskey
TTITLE9=Amelia Earhart
TTITLE10=Straight To You
TTITLE11=Pump Jack Blues
EXTD=
EXTT0=
EXTT1=
EXTT2=
EXTT3=
EXTT4=
EXTT5=
EXTT6=
EXTT7=
EXTT8=
EXTT9=
EXTT10=
EXTT11=
PLAYORDER=
